<svg width="285" height="61" viewBox="0 0 285 61" fill="none" xmlns="http://www.w3.org/2000/svg">
<circle cx="30" cy="30.7158" r="30" fill="#EFF6F1"/>
<path d="M33.6585 23.2631C34.7231 23.2661 35.7431 23.6747 36.4958 24.3996C37.2486 25.1244 37.6729 26.1067 37.6761 27.1318V34.8685C37.6729 35.8936 37.2486 36.8758 36.4958 37.6007C35.7431 38.3256 34.7231 38.7342 33.6585 38.7372H25.6243C24.5598 38.7342 23.5397 38.3256 22.787 37.6007C22.0342 36.8758 21.6099 35.8936 21.6068 34.8685V27.1318C21.6099 26.1067 22.0342 25.1244 22.787 24.3996C23.5397 23.6747 24.5598 23.2661 25.6243 23.2631H33.6585ZM33.6585 21.7158H25.6243C22.5309 21.7158 20 24.153 20 27.1318V34.8685C20 37.8473 22.5309 40.2845 25.6243 40.2845H33.6585C36.752 40.2845 39.2828 37.8473 39.2828 34.8685V27.1318C39.2828 24.153 36.752 21.7158 33.6585 21.7158Z" fill="#274C5B"/>
<path d="M34.8633 27.1326C34.6249 27.1326 34.3919 27.0645 34.1937 26.937C33.9956 26.8095 33.8411 26.6282 33.7499 26.4162C33.6587 26.2041 33.6348 25.9708 33.6813 25.7457C33.7278 25.5205 33.8426 25.3137 34.0111 25.1514C34.1797 24.9891 34.3944 24.8786 34.6282 24.8338C34.862 24.789 35.1043 24.812 35.3245 24.8999C35.5447 24.9877 35.7329 25.1365 35.8654 25.3273C35.9978 25.5182 36.0685 25.7425 36.0685 25.9721C36.0688 26.1246 36.0379 26.2756 35.9774 26.4166C35.917 26.5575 35.8282 26.6856 35.7163 26.7934C35.6043 26.9013 35.4713 26.9867 35.3249 27.0449C35.1785 27.1031 35.0217 27.1329 34.8633 27.1326ZM29.641 27.906C30.2767 27.906 30.8981 28.0875 31.4266 28.4276C31.9551 28.7677 32.3671 29.251 32.6103 29.8166C32.8536 30.3821 32.9172 31.0044 32.7932 31.6047C32.6692 32.2051 32.3631 32.7565 31.9136 33.1894C31.4641 33.6222 30.8915 33.917 30.268 34.0364C29.6446 34.1558 28.9984 34.0945 28.4111 33.8603C27.8238 33.626 27.3219 33.2293 26.9687 32.7204C26.6156 32.2114 26.4271 31.6131 26.4271 31.0009C26.428 30.1804 26.7669 29.3937 27.3694 28.8135C27.972 28.2333 28.7889 27.9069 29.641 27.906ZM29.641 26.3588C28.6876 26.3588 27.7555 26.631 26.9628 27.1411C26.17 27.6512 25.5521 28.3762 25.1873 29.2245C24.8224 30.0727 24.7269 31.0061 24.9129 31.9066C25.099 32.8071 25.5581 33.6342 26.2323 34.2834C26.9065 34.9327 27.7654 35.3748 28.7005 35.5539C29.6357 35.733 30.605 35.6411 31.4858 35.2897C32.3667 34.9384 33.1196 34.3434 33.6493 33.58C34.179 32.8166 34.4617 31.9191 34.4617 31.0009C34.4617 29.7698 33.9538 28.589 33.0498 27.7184C32.1457 26.8479 30.9196 26.3588 29.641 26.3588Z" fill="#274C5B"/>
<circle cx="105" cy="30.7158" r="30" fill="#EFF6F1"/>
<path fill-rule="evenodd" clip-rule="evenodd" d="M114.283 31.0001C114.283 25.873 109.966 21.7158 104.641 21.7158C99.3171 21.7158 95 25.873 95 31.0001C95 35.634 98.5251 39.475 103.135 40.1721V33.6847H100.686V31.0001H103.135V28.9547C103.135 26.6282 104.575 25.3421 106.777 25.3421C107.832 25.3421 108.935 25.5236 108.935 25.5236V27.8087H107.719C106.522 27.8087 106.147 28.524 106.147 29.2593V31.0001H108.821L108.394 33.6847H106.148V40.173C110.758 39.4762 114.283 35.6353 114.283 31.0001Z" fill="#274C5B"/>
<circle cx="180" cy="30.7158" r="30" fill="#EFF6F1"/>
<path d="M190.66 24.6742C189.885 25.011 189.065 25.2328 188.226 25.3328C189.108 24.8164 189.771 23.9961 190.091 23.0257C189.257 23.5132 188.347 23.8553 187.398 24.0372C186.999 23.6186 186.519 23.2857 185.987 23.0585C185.455 22.8313 184.882 22.7148 184.303 22.7158C181.961 22.7158 180.065 24.5839 180.065 26.8866C180.064 27.2069 180.1 27.5263 180.175 27.8378C178.495 27.7591 176.85 27.3306 175.346 26.5798C173.841 25.829 172.51 24.7724 171.437 23.4777C171.061 24.1122 170.862 24.8361 170.861 25.5738C170.861 27.02 171.615 28.2984 172.755 29.0473C172.08 29.0313 171.418 28.8526 170.827 28.5265V28.5781C170.827 30.6011 172.291 32.2841 174.228 32.6671C173.863 32.7642 173.488 32.8134 173.111 32.8135C172.844 32.814 172.577 32.788 172.314 32.736C172.853 34.3931 174.42 35.5983 176.276 35.6327C174.768 36.7953 172.916 37.4236 171.011 37.419C170.673 37.4185 170.336 37.3984 170 37.3587C171.937 38.5958 174.189 39.2502 176.488 39.244C184.294 39.244 188.559 32.8867 188.559 27.373C188.559 27.1922 188.554 27.0114 188.546 26.8349C189.373 26.2462 190.089 25.5145 190.66 24.6742Z" fill="#274C5B"/>
<circle cx="255" cy="30.7158" r="30" fill="#EFF6F1"/>
<path d="M254.797 20.7158C249.387 20.7158 245 25.1005 245 30.5081C245 34.5168 247.414 37.9616 250.865 39.4785C250.839 38.7965 250.86 37.9747 251.035 37.2315C251.223 36.4359 252.295 31.8939 252.295 31.8939C252.295 31.8939 251.98 31.2687 251.98 30.3463C251.98 28.895 252.82 27.8108 253.869 27.8108C254.762 27.8108 255.19 28.4797 255.19 29.2797C255.19 30.1758 254.617 31.5135 254.324 32.7551C254.079 33.7955 254.845 34.6392 255.873 34.6392C257.727 34.6392 258.978 32.2567 258.978 29.4327C258.978 27.2863 257.53 25.6819 254.902 25.6819C251.932 25.6819 250.078 27.8983 250.078 30.3726C250.078 31.225 250.331 31.8283 250.725 32.2917C250.904 32.5059 250.93 32.5933 250.865 32.8381C250.817 33.0174 250.712 33.4501 250.664 33.625C250.598 33.8742 250.397 33.9616 250.174 33.8698C248.805 33.3102 248.166 31.8152 248.166 30.1278C248.166 27.3475 250.515 24.012 255.168 24.012C258.908 24.012 261.37 26.718 261.37 29.6207C261.37 33.4633 259.231 36.331 256.082 36.331C255.024 36.331 254.031 35.7583 253.69 35.1113C253.69 35.1113 253.122 37.367 252.999 37.8042C252.794 38.5605 252.387 39.3124 252.015 39.9025C252.917 40.1684 253.852 40.3039 254.792 40.3047C260.202 40.3047 264.589 35.9201 264.589 30.5125C264.589 25.1049 260.207 20.7158 254.797 20.7158Z" fill="#274C5B"/>
</svg>
